<svg xmlns="http://www.w3.org/2000/svg" viewBox="0 0 28 28"><defs><style>.cls-1{fill:#009adf;}</style></defs><title>icon</title><g id="header"><path class="cls-1" d="M21,9H13.77a.44.44,0,0,1-.35-.17l-.2-.31a1.29,1.29,0,0,0-1-.52H7.28A1.28,1.28,0,0,0,6,9.29v9.43A1.28,1.28,0,0,0,7.28,20H20.72A1.28,1.28,0,0,0,22,18.72V10.29A1.29,1.29,0,0,0,20.72,9M7,9h5.05a.84.84,0,0,1,.68.35l.3.45c.16.22.59.2.86.2h6.67a.43.43,0,0,1,.43.43V12H7V9.43A.43.43,0,0,1,7.42,9M21,19H7.41A.43.43,0,0,1,7,18.53L7,13H21v5.55c0,.24,0,.43-.21.43"/></g></svg>